<svg width="149" height="17" viewBox="0 0 149 17" fill="none" xmlns="http://www.w3.org/2000/svg">
<path d="M24.4629 14.4814V5.1515C24.4629 2.53756 24.4629 1.23059 23.6807 0.910365C22.8986 0.590139 21.982 1.52185 20.1489 3.38527L17.4076 6.17188C16.9863 6.62537 15.7091 6.40327 15.7091 5.60938V5.26907C15.7091 2.61192 15.7091 1.28334 14.9193 0.96603C14.1294 0.648718 13.2103 1.60804 11.372 3.52667L2.54541 12.739C0.800969 14.5597 -0.0712532 15.4701 0.255229 16.235C0.581711 17 1.84246 17 4.36397 17H21.9443C23.1316 17 23.7252 17 24.0941 16.6312C24.4629 16.2623 24.4629 15.6687 24.4629 14.4814Z" fill="#252525"/>
<circle cx="6.36157" cy="13.5006" r="1.5" fill="white"/>
<circle cx="10.3616" cy="13.5006" r="1.5" fill="white"/>
<path d="M41.2587 5.80863L39.2737 5.83019C39.058 3.73854 37.785 2.7035 35.4549 2.7035C34.3545 2.7035 33.4915 2.91914 32.8874 3.37197C32.2832 3.80323 31.9812 4.42857 31.9812 5.24798C31.9812 5.5283 32.0243 5.78706 32.1106 6.0027C32.1969 6.21833 32.348 6.39084 32.5637 6.56334C32.7795 6.73585 32.9737 6.86523 33.1463 6.99461C33.3405 7.10243 33.6425 7.21024 34.0309 7.31806C34.4408 7.44744 34.7644 7.53369 35.0018 7.57682C35.2607 7.61995 35.6275 7.7062 36.1453 7.81402C36.7925 7.9434 37.3104 8.07278 37.7203 8.18059C38.1518 8.28841 38.648 8.46092 39.209 8.69811C39.7915 8.95687 40.2446 9.21563 40.5898 9.51752C40.9351 9.81941 41.2155 10.2075 41.4744 10.6819C41.7333 11.1779 41.8412 11.7385 41.8412 12.3423C41.8412 13.4205 41.5392 14.3261 40.9351 15.0593C40.3309 15.7925 39.5974 16.2884 38.7343 16.5687C37.8713 16.8706 36.922 17 35.8648 17C33.9446 17 32.4127 16.5472 31.2476 15.6415C30.0825 14.7358 29.5 13.3774 29.5 11.5876H31.4634C31.5065 12.903 31.9596 13.8518 32.7795 14.4555C33.6209 15.0593 34.6997 15.3612 36.0374 15.3612C37.0946 15.3612 38.0008 15.124 38.7559 14.6927C39.4895 14.2615 39.8779 13.5499 39.8779 12.558C39.8779 12.0836 39.77 11.6954 39.5758 11.372C39.36 11.0485 39.058 10.7898 38.6265 10.5741C38.195 10.3585 37.7634 10.2075 37.3319 10.0782C36.9004 9.94879 36.3179 9.79784 35.6275 9.6469C35.5196 9.62534 35.4549 9.60377 35.4117 9.58221C33.8151 9.2372 32.7795 8.93531 32.3048 8.71968C30.7945 8.07278 30.061 6.97305 30.061 5.37736C30.061 3.91105 30.6004 2.83288 31.6791 2.09973C32.7579 1.36658 34.074 1 35.6059 1C37.2888 1 38.648 1.4097 39.6405 2.20755C40.6546 3.02695 41.194 4.21294 41.2587 5.80863Z" fill="#252525"/>
<path d="M44.2887 1.30189H46.511L54.6234 13.7655V1.30189H56.5868V16.655H54.2998L46.2305 4.34232V16.655H44.2887V1.30189Z" fill="#252525"/>
<path d="M66.3968 1.30189L72.3948 16.655H70.1293L68.4249 11.9542H61.9738L60.2261 16.655H58.0686L64.1097 1.30189H66.3968ZM67.8207 10.3369L65.2101 3.24259L62.5563 10.3369H67.8207Z" fill="#252525"/>
<path d="M74.0224 1.30189H80.3224C81.8975 1.30189 83.1488 1.66846 84.0766 2.38005C84.9828 3.09164 85.4574 4.21294 85.4574 5.72237C85.4574 8.82749 83.7098 10.3585 80.2146 10.3585H76.0505V16.655H74.0224V1.30189ZM76.0289 3.04852V8.65499H79.9341C81.0344 8.65499 81.8975 8.46092 82.5016 8.05121C83.1057 7.64151 83.4077 6.90836 83.4077 5.85175C83.4077 5.26954 83.3214 4.77359 83.1273 4.38545C82.9331 3.9973 82.6526 3.71698 82.2642 3.52291C81.8975 3.3504 81.5091 3.22102 81.0992 3.15633C80.7108 3.09164 80.2146 3.04852 79.6536 3.04852H76.0289Z" fill="#252525"/>
<path d="M87.9481 1.30189H90.7529L95.6937 14.3046L100.462 1.30189H103.288V16.655H101.368V3.84636L96.5567 16.655H94.7875L89.8899 3.84636V16.655H87.9481V1.30189Z" fill="#252525"/>
<path d="M113.172 1.30189L119.17 16.655H116.905L115.2 11.9542H108.749L107.001 16.655H104.844L110.885 1.30189H113.172ZM114.596 10.3369L111.985 3.24259L109.331 10.3369H114.596Z" fill="#252525"/>
<path d="M122.826 1.30189V16.655H120.798V1.30189H122.826Z" fill="#252525"/>
<path d="M136.5 14.8868V16.655H126.316V1.30189H128.344V14.8868H136.5Z" fill="#252525"/>
<path d="M145.028 10C145.985 10 146.811 10.3566 147.505 11.0322C148.181 11.7078 148.537 12.5335 148.537 13.4906C148.537 14.4665 148.181 15.2922 147.505 15.9678C146.811 16.6622 145.985 17 145.028 17C144.052 17 143.226 16.6622 142.551 15.9678C141.875 15.2922 141.537 14.4665 141.537 13.4906C141.537 12.5335 141.875 11.7078 142.551 11.0322C143.226 10.3566 144.052 10 145.028 10ZM145.028 10.6005C144.221 10.6005 143.545 10.882 142.982 11.445C142.419 12.008 142.138 12.7024 142.138 13.4906C142.138 14.2976 142.419 14.9732 142.982 15.5362C143.545 16.0992 144.221 16.3807 145.028 16.3807C145.816 16.3807 146.51 16.0992 147.073 15.5362C147.636 14.9732 147.918 14.2976 147.918 13.4906C147.918 12.7024 147.636 12.008 147.073 11.445C146.51 10.882 145.816 10.6005 145.028 10.6005ZM143.564 11.5389H144.953C146.097 11.5389 146.679 11.933 146.679 12.6836C146.679 13.134 146.435 13.4531 145.966 13.6032C146.21 13.7158 146.379 13.8472 146.473 14.0161C146.548 14.185 146.604 14.4853 146.623 14.8981C146.623 15.1046 146.642 15.2735 146.717 15.4236H145.816C145.76 15.3298 145.722 15.1421 145.722 14.8794C145.703 14.504 145.647 14.2601 145.534 14.1475C145.422 14.0349 145.197 13.9786 144.859 13.9786H144.483V15.4236H143.564V11.5389ZM144.483 13.2654H144.915C145.478 13.2654 145.76 13.0965 145.76 12.7587C145.76 12.4209 145.478 12.252 144.915 12.252H144.483V13.2654Z" fill="#252525"/>
</svg>
