<svg width="44" height="23" viewBox="0 0 44 23" fill="none" xmlns="http://www.w3.org/2000/svg">
<path d="M26.848 4.2949C29.3907 1.62815 30.6623 0.294573 31.7562 0.732398C32.8501 1.17032 32.8499 3.01262 32.8499 6.69724V19.5176C32.8499 21.159 32.8501 21.9803 32.3402 22.4902C31.8303 22.9999 31.0095 23 29.3685 23H5.83529C2.41403 23 0.703381 22.9997 0.247398 21.9551C-0.208304 20.91 0.955159 19.6557 3.28353 17.1484L15.0326 4.49705C17.5817 1.75201 18.8568 0.379199 19.9613 0.812476C21.0658 1.24626 21.0667 3.1196 21.0667 6.86619V7.17966C21.0669 8.28217 22.7857 8.59072 23.3529 7.96091L26.848 4.2949ZM9.17318 15.6504C8.06861 15.6504 7.17318 16.5458 7.17318 17.6504C7.1732 18.7549 8.06862 19.6504 9.17318 19.6504C10.2776 19.6503 11.1732 18.7548 11.1732 17.6504C11.1732 16.5459 10.2777 15.6505 9.17318 15.6504ZM16.1732 15.6504C15.0686 15.6504 14.1732 16.5458 14.1732 17.6504C14.1732 18.7549 15.0686 19.6504 16.1732 19.6504C17.2776 19.6503 18.1732 18.7548 18.1732 17.6504C18.1732 16.5459 17.2777 15.6505 16.1732 15.6504Z" fill="#252525"/>
<path d="M39.338 14C40.5686 14 41.6303 14.4584 42.523 15.3271C43.3917 16.1957 43.8501 17.2574 43.8501 18.4879C43.8501 19.7426 43.3917 20.8043 42.523 21.6729C41.6303 22.5657 40.5686 23 39.338 23C38.0833 23 37.0217 22.5657 36.153 21.6729C35.2844 20.8043 34.8501 19.7426 34.8501 18.4879C34.8501 17.2574 35.2844 16.1957 36.153 15.3271C37.0217 14.4584 38.0833 14 39.338 14ZM39.338 14.7721C38.3005 14.7721 37.4319 15.134 36.708 15.8579C35.9841 16.5818 35.6222 17.4745 35.6222 18.4879C35.6222 19.5255 35.9841 20.3941 36.708 21.118C37.4319 21.8418 38.3005 22.2038 39.338 22.2038C40.3514 22.2038 41.2442 21.8418 41.9681 21.118C42.6919 20.3941 43.0539 19.5255 43.0539 18.4879C43.0539 17.4745 42.6919 16.5818 41.9681 15.8579C41.2442 15.134 40.3514 14.7721 39.338 14.7721ZM37.456 15.9786H39.2415C40.7134 15.9786 41.4614 16.4853 41.4614 17.4504C41.4614 18.0295 41.1477 18.4397 40.5445 18.6327C40.8581 18.7775 41.0753 18.9464 41.1959 19.1635C41.2925 19.3807 41.3648 19.7668 41.389 20.2976C41.389 20.563 41.4131 20.7802 41.5096 20.9732H40.3514C40.2791 20.8525 40.2308 20.6113 40.2308 20.2735C40.2067 19.7909 40.1343 19.4772 39.9895 19.3324C39.8447 19.1877 39.5552 19.1153 39.1209 19.1153H38.6383V20.9732H37.456V15.9786ZM38.6383 18.1984H39.1933C39.9171 18.1984 40.2791 17.9812 40.2791 17.5469C40.2791 17.1126 39.9171 16.8954 39.1933 16.8954H38.6383V18.1984Z" fill="#252525"/>
</svg>
