<svg width="44" height="23" viewBox="0 0 44 23" fill="none" xmlns="http://www.w3.org/2000/svg">
<path fill-rule="evenodd" clip-rule="evenodd" d="M32.8503 19.518V6.69751C32.8503 3.01275 32.8503 1.17037 31.7564 0.732441C30.6625 0.294508 29.3911 1.62792 26.8484 4.29473L23.3529 7.96083C22.7857 8.59069 21.0664 8.28222 21.0664 7.17958V6.86627C21.0664 3.11967 21.0664 1.24638 19.9618 0.812593C18.8573 0.37881 17.5825 1.7515 15.033 4.49688L3.28414 17.1486C0.955645 19.656 -0.2086 20.9097 0.247114 21.9548C0.702827 22.9999 2.41375 22.9999 5.83559 22.9999H29.3684C31.0098 22.9999 31.8305 22.9999 32.3404 22.49C32.8503 21.9801 32.8503 21.1594 32.8503 19.518ZM11.1731 17.6504C11.1731 18.755 10.2777 19.6504 9.1731 19.6504C8.06853 19.6504 7.1731 18.755 7.1731 17.6504C7.1731 16.5458 8.06853 15.6504 9.1731 15.6504C10.2777 15.6504 11.1731 16.5458 11.1731 17.6504ZM16.1731 19.6504C17.2777 19.6504 18.1731 18.755 18.1731 17.6504C18.1731 16.5458 17.2777 15.6504 16.1731 15.6504C15.0685 15.6504 14.1731 16.5458 14.1731 17.6504C14.1731 18.755 15.0685 19.6504 16.1731 19.6504Z" fill="#3F0900"/>
<path d="M39.3383 14C40.5688 14 41.6305 14.4584 42.5233 15.3271C43.3919 16.1957 43.8503 17.2574 43.8503 18.4879C43.8503 19.7426 43.3919 20.8043 42.5233 21.6729C41.6305 22.5657 40.5688 23 39.3383 23C38.0836 23 37.0219 22.5657 36.1533 21.6729C35.2847 20.8043 34.8503 19.7426 34.8503 18.4879C34.8503 17.2574 35.2847 16.1957 36.1533 15.3271C37.0219 14.4584 38.0836 14 39.3383 14ZM39.3383 14.7721C38.3007 14.7721 37.4321 15.134 36.7083 15.8579C35.9844 16.5818 35.6225 17.4745 35.6225 18.4879C35.6225 19.5255 35.9844 20.3941 36.7083 21.118C37.4321 21.8418 38.3007 22.2038 39.3383 22.2038C40.3517 22.2038 41.2444 21.8418 41.9683 21.118C42.6922 20.3941 43.0541 19.5255 43.0541 18.4879C43.0541 17.4745 42.6922 16.5818 41.9683 15.8579C41.2444 15.134 40.3517 14.7721 39.3383 14.7721ZM37.4562 15.9786H39.2418C40.7136 15.9786 41.4616 16.4853 41.4616 17.4504C41.4616 18.0295 41.1479 18.4397 40.5447 18.6327C40.8584 18.7775 41.0755 18.9464 41.1962 19.1635C41.2927 19.3807 41.3651 19.7668 41.3892 20.2976C41.3892 20.563 41.4133 20.7802 41.5099 20.9732H40.3517C40.2793 20.8525 40.231 20.6113 40.231 20.2735C40.2069 19.7909 40.1345 19.4772 39.9898 19.3324C39.845 19.1877 39.5554 19.1153 39.1211 19.1153H38.6385V20.9732H37.4562V15.9786ZM38.6385 18.1984H39.1935C39.9174 18.1984 40.2793 17.9812 40.2793 17.5469C40.2793 17.1126 39.9174 16.8954 39.1935 16.8954H38.6385V18.1984Z" fill="#3F0900"/>
</svg>
