<svg width="20" height="20" viewBox="0 0 20 20" fill="none" xmlns="http://www.w3.org/2000/svg">
<path d="M14.166 2.50004C14.3849 2.28119 14.6447 2.10842 14.9307 1.99176C15.2167 1.87511 15.5232 1.81689 15.8327 1.81689C16.1422 1.81689 16.4487 1.87511 16.7347 1.99176C17.0206 2.10842 17.2805 2.28119 17.4993 2.50004C17.7182 2.71888 17.891 2.97871 18.0076 3.26468C18.1243 3.55064 18.1825 3.85714 18.1825 4.16671C18.1825 4.47628 18.1243 4.78277 18.0076 5.06874C17.891 5.3547 17.7182 5.61453 17.4993 5.83337L6.24935 17.0834L1.66602 18.3334L2.91602 13.75L14.166 2.50004Z" stroke="#252525" stroke-width="1.67" stroke-linecap="round" stroke-linejoin="round"/>
</svg>
