<svg width="20" height="20" viewBox="0 0 20 20" fill="none" xmlns="http://www.w3.org/2000/svg">
  <path d="M19.3636 10.2273C19.3636 9.51818 19.3091 8.83636 19.2091 8.18182H10V12.05H15.1818C14.9545 13.2727 14.2727 14.3182 13.2273 15.0455V17.5909H16.4636C18.4091 15.8182 19.3636 13.2727 19.3636 10.2273Z" fill="#4285F4"/>
  <path d="M10 20C12.7273 20 14.9545 19.1091 16.4636 17.5909L13.2273 15.0455C12.3182 15.6364 11.1364 16 10 16C7.39545 16 5.19091 14.2091 4.40455 11.8182H1.04545V14.4C2.56364 17.4 6.06364 20 10 20Z" fill="#34A853"/>
  <path d="M4.40455 11.8182C4.20455 11.2273 4.09091 10.6273 4.09091 10C4.09091 9.37273 4.20455 8.77273 4.40455 8.18182V5.54545H1.04545C0.381818 6.86364 0 8.38182 0 10C0 11.6182 0.381818 13.1364 1.04545 14.4545L4.40455 11.8182Z" fill="#FBBC05"/>
  <path d="M10 3.95455C11.3409 3.95455 12.5227 4.42727 13.4318 5.29091L16.2727 2.45455C14.95 1.22727 13.2273 0.545455 10 0.545455C6.06364 0.545455 2.56364 3.14545 1.04545 6.14545L4.40455 8.78182C5.19091 6.39091 7.39545 3.95455 10 3.95455Z" fill="#EA4335"/>
</svg>