<svg width="149" height="17" viewBox="0 0 149 17" fill="none" xmlns="http://www.w3.org/2000/svg">
<path fill-rule="evenodd" clip-rule="evenodd" d="M24.6004 14.4813V5.1514C24.6004 2.53746 24.6004 1.23049 23.8183 0.910263C23.0361 0.590037 22.1195 1.52175 20.2864 3.38517L17.5451 6.17177C17.1238 6.62527 15.8466 6.40317 15.8466 5.60927V5.26897C15.8466 2.61182 15.8466 1.28324 15.0568 0.965927C14.267 0.648616 13.3478 1.60793 11.5095 3.52657L2.68292 12.7389C0.938475 14.5596 0.0662527 15.47 0.392735 16.2349C0.719217 16.9999 1.97997 16.9999 4.50148 16.9999H22.0818C23.2691 16.9999 23.8627 16.9999 24.2316 16.6311C24.6004 16.2622 24.6004 15.6686 24.6004 14.4813ZM7.99902 13.5005C7.99902 14.3289 7.32745 15.0005 6.49902 15.0005C5.6706 15.0005 4.99902 14.3289 4.99902 13.5005C4.99902 12.6721 5.6706 12.0005 6.49902 12.0005C7.32745 12.0005 7.99902 12.6721 7.99902 13.5005ZM10.499 15.0005C11.3275 15.0005 11.999 14.3289 11.999 13.5005C11.999 12.6721 11.3275 12.0005 10.499 12.0005C9.6706 12.0005 8.99902 12.6721 8.99902 13.5005C8.99902 14.3289 9.6706 15.0005 10.499 15.0005Z" fill="#252525"/>
<path d="M41.3964 5.80863L39.4114 5.83019C39.1957 3.73854 37.9227 2.7035 35.5926 2.7035C34.4922 2.7035 33.6292 2.91914 33.0251 3.37197C32.4209 3.80323 32.1189 4.42857 32.1189 5.24798C32.1189 5.5283 32.162 5.78706 32.2483 6.0027C32.3346 6.21833 32.4857 6.39084 32.7014 6.56334C32.9172 6.73585 33.1114 6.86523 33.284 6.99461C33.4781 7.10243 33.7802 7.21024 34.1686 7.31806C34.5785 7.44744 34.9021 7.53369 35.1395 7.57682C35.3984 7.61995 35.7652 7.7062 36.283 7.81402C36.9302 7.9434 37.4481 8.07278 37.858 8.18059C38.2895 8.28841 38.7857 8.46092 39.3467 8.69811C39.9292 8.95687 40.3823 9.21563 40.7275 9.51752C41.0727 9.81941 41.3532 10.2075 41.6121 10.6819C41.871 11.1779 41.9789 11.7385 41.9789 12.3423C41.9789 13.4205 41.6769 14.3261 41.0727 15.0593C40.4686 15.7925 39.7351 16.2884 38.872 16.5687C38.009 16.8706 37.0597 17 36.0025 17C34.0823 17 32.5504 16.5472 31.3853 15.6415C30.2202 14.7358 29.6377 13.3774 29.6377 11.5876H31.6011C31.6442 12.903 32.0973 13.8518 32.9172 14.4555C33.7586 15.0593 34.8374 15.3612 36.1751 15.3612C37.2323 15.3612 38.1385 15.124 38.8936 14.6927C39.6272 14.2615 40.0155 13.5499 40.0155 12.558C40.0155 12.0836 39.9077 11.6954 39.7135 11.372C39.4977 11.0485 39.1957 10.7898 38.7642 10.5741C38.3327 10.3585 37.9011 10.2075 37.4696 10.0782C37.0381 9.94879 36.4556 9.79784 35.7652 9.6469C35.6573 9.62534 35.5926 9.60377 35.5494 9.58221C33.9528 9.2372 32.9172 8.93531 32.4425 8.71968C30.9322 8.07278 30.1987 6.97305 30.1987 5.37736C30.1987 3.91105 30.738 2.83288 31.8168 2.09973C32.8956 1.36658 34.2117 1 35.7436 1C37.4265 1 38.7857 1.4097 39.7782 2.20755C40.7923 3.02695 41.3317 4.21294 41.3964 5.80863Z" fill="#252525"/>
<path d="M44.4264 1.30189H46.6487L54.7611 13.7655V1.30189H56.7245V16.655H54.4375L46.3682 4.34232V16.655H44.4264V1.30189Z" fill="#252525"/>
<path d="M66.5345 1.30189L72.5325 16.655H70.267L68.5626 11.9542H62.1115L60.3638 16.655H58.2063L64.2474 1.30189H66.5345ZM67.9584 10.3369L65.3478 3.24259L62.694 10.3369H67.9584Z" fill="#252525"/>
<path d="M74.1601 1.30189H80.4601C82.0352 1.30189 83.2865 1.66846 84.2143 2.38005C85.1205 3.09164 85.5951 4.21294 85.5951 5.72237C85.5951 8.82749 83.8475 10.3585 80.3523 10.3585H76.1882V16.655H74.1601V1.30189ZM76.1666 3.04852V8.65499H80.0718C81.1721 8.65499 82.0352 8.46092 82.6393 8.05121C83.2434 7.64151 83.5454 6.90836 83.5454 5.85175C83.5454 5.26954 83.4591 4.77359 83.265 4.38545C83.0708 3.9973 82.7903 3.71698 82.4019 3.52291C82.0352 3.3504 81.6468 3.22102 81.2369 3.15633C80.8485 3.09164 80.3523 3.04852 79.7913 3.04852H76.1666Z" fill="#252525"/>
<path d="M88.0858 1.30189H90.8906L95.8314 14.3046L100.6 1.30189H103.426V16.655H101.506V3.84636L96.6944 16.655H94.9252L90.0276 3.84636V16.655H88.0858V1.30189Z" fill="#252525"/>
<path d="M113.31 1.30189L119.308 16.655H117.042L115.338 11.9542H108.887L107.139 16.655H104.981L111.023 1.30189H113.31ZM114.734 10.3369L112.123 3.24259L109.469 10.3369H114.734Z" fill="#252525"/>
<path d="M122.963 1.30189V16.655H120.935V1.30189H122.963Z" fill="#252525"/>
<path d="M136.638 14.8868V16.655H126.454V1.30189H128.482V14.8868H136.638Z" fill="#252525"/>
<path d="M145.165 10C146.123 10 146.948 10.3566 147.643 11.0322C148.318 11.7078 148.675 12.5335 148.675 13.4906C148.675 14.4665 148.318 15.2922 147.643 15.9678C146.948 16.6622 146.123 17 145.165 17C144.19 17 143.364 16.6622 142.688 15.9678C142.013 15.2922 141.675 14.4665 141.675 13.4906C141.675 12.5335 142.013 11.7078 142.688 11.0322C143.364 10.3566 144.19 10 145.165 10ZM145.165 10.6005C144.358 10.6005 143.683 10.882 143.12 11.445C142.557 12.008 142.275 12.7024 142.275 13.4906C142.275 14.2976 142.557 14.9732 143.12 15.5362C143.683 16.0992 144.358 16.3807 145.165 16.3807C145.954 16.3807 146.648 16.0992 147.211 15.5362C147.774 14.9732 148.056 14.2976 148.056 13.4906C148.056 12.7024 147.774 12.008 147.211 11.445C146.648 10.882 145.954 10.6005 145.165 10.6005ZM143.702 11.5389H145.09C146.235 11.5389 146.817 11.933 146.817 12.6836C146.817 13.134 146.573 13.4531 146.104 13.6032C146.348 13.7158 146.517 13.8472 146.61 14.0161C146.686 14.185 146.742 14.4853 146.761 14.8981C146.761 15.1046 146.779 15.2735 146.854 15.4236H145.954C145.897 15.3298 145.86 15.1421 145.86 14.8794C145.841 14.504 145.785 14.2601 145.672 14.1475C145.56 14.0349 145.334 13.9786 144.997 13.9786H144.621V15.4236H143.702V11.5389ZM144.621 13.2654H145.053C145.616 13.2654 145.897 13.0965 145.897 12.7587C145.897 12.4209 145.616 12.252 145.053 12.252H144.621V13.2654Z" fill="#252525"/>
</svg>
