<svg width="20" height="20" viewBox="0 0 20 20" fill="none" xmlns="http://www.w3.org/2000/svg">
<mask id="mask0_787_545" style="mask-type:alpha" maskUnits="userSpaceOnUse" x="0" y="0" width="20" height="20">
<rect width="20" height="20" transform="matrix(-1 0 0 1 20 0)" fill="#D9D9D9"/>
</mask>
<g mask="url(#mask0_787_545)">
<path d="M16.2955 18C16.7642 18 17.1655 17.8368 17.4993 17.5104C17.8331 17.184 18 16.7917 18 16.3333V4.66667C18 4.20833 17.8331 3.81597 17.4993 3.48958C17.1655 3.16319 16.7642 3 16.2955 3H11.1818C10.9403 3 10.7379 3.07986 10.5746 3.23958C10.4112 3.39931 10.3295 3.59722 10.3295 3.83333C10.3295 4.06944 10.4112 4.26736 10.5746 4.42708C10.7379 4.58681 10.9403 4.66667 11.1818 4.66667H16.2955V16.3333H11.1818C10.9403 16.3333 10.7379 16.4132 10.5746 16.5729C10.4112 16.7326 10.3295 16.9306 10.3295 17.1667C10.3295 17.4028 10.4112 17.6007 10.5746 17.7604C10.7379 17.9201 10.9403 18 11.1818 18H16.2955ZM5.91903 11.3333H12.0341C12.2756 11.3333 12.478 11.2535 12.6413 11.0938C12.8047 10.934 12.8864 10.7361 12.8864 10.5C12.8864 10.2639 12.8047 10.066 12.6413 9.90625C12.478 9.74653 12.2756 9.66667 12.0341 9.66667H5.91903L7.51705 8.10417C7.6733 7.95139 7.75142 7.76389 7.75142 7.54167C7.75142 7.31944 7.6733 7.125 7.51705 6.95833C7.3608 6.79167 7.16193 6.70486 6.92046 6.69792C6.67898 6.69097 6.47301 6.77083 6.30256 6.9375L3.25568 9.91667C3.08523 10.0833 3 10.2778 3 10.5C3 10.7222 3.08523 10.9167 3.25568 11.0833L6.30256 14.0625C6.47301 14.2292 6.67543 14.309 6.9098 14.3021C7.14418 14.2951 7.34659 14.2083 7.51705 14.0417C7.6733 13.875 7.74787 13.6771 7.74077 13.4479C7.73366 13.2188 7.65199 13.0278 7.49574 12.875L5.91903 11.3333Z" fill="white"/>
</g>
</svg>
