<svg width="20" height="20" viewBox="0 0 20 20" fill="none" xmlns="http://www.w3.org/2000/svg">
  <path d="M2 3H13C13.5523 3 14 3.44772 14 4V16C14 16.5523 13.5523 17 13 17H2C1.44772 17 1 16.5523 1 16V4C1 3.44772 1.44772 3 2 3Z" fill="#0078D4"/>
  <path d="M18 4H9V12H18V4Z" fill="#0078D4"/>
  <path d="M9 12H18V16C18 16.5523 17.5523 17 17 17H9V12Z" fill="#1BA1E2"/>
  <path d="M7.5 7C8.88071 7 10 8.11929 10 9.5C10 10.8807 8.88071 12 7.5 12C6.11929 12 5 10.8807 5 9.5C5 8.11929 6.11929 7 7.5 7Z" fill="white"/>
  <path d="M6.5 9.5C6.5 9 6.9 8.5 7.5 8.5C8.1 8.5 8.5 9 8.5 9.5C8.5 10 8.1 10.5 7.5 10.5C6.9 10.5 6.5 10 6.5 9.5Z" fill="#0078D4"/>
</svg>