<svg width="18" height="18" viewBox="0 0 18 18" fill="none" xmlns="http://www.w3.org/2000/svg">
<g clip-path="url(#clip0_1686_6355)">
<path d="M18 9.45012C18.001 9.29882 17.9283 9.158 17.8083 9.07888H17.8062L17.7987 9.07437L11.5615 5.10538C11.5345 5.08582 11.5066 5.06794 11.4777 5.05183C11.2369 4.91827 10.9508 4.91827 10.71 5.05183C10.6812 5.06795 10.6532 5.08582 10.6263 5.10538L4.3891 9.07437L4.38157 9.07888C4.19094 9.20631 4.1325 9.47575 4.25105 9.68067C4.28597 9.74106 4.33408 9.79136 4.3912 9.82722L10.6284 13.7962C10.6554 13.8156 10.6834 13.8335 10.7121 13.8498C10.9529 13.9833 11.239 13.9833 11.4798 13.8498C11.5086 13.8335 11.5365 13.8156 11.5636 13.7962L17.8008 9.82722C17.9254 9.74913 18.0014 9.60518 18 9.45012Z" fill="#FFC107"/>
<path d="M5.11608 6.79995H9.2092V10.8333H5.11608V6.79995ZM17.1627 2.7V0.854996C17.1725 0.393703 16.8329 0.0110536 16.4038 0H5.78209C5.35298 0.0110536 5.01333 0.393703 5.02316 0.854996V2.7L11.3022 4.49999L17.1627 2.7Z" fill="#0364B8"/>
<path d="M5.02319 2.69995H9.20923V6.74995H5.02319V2.69995Z" fill="#0078D4"/>
<path d="M13.3953 2.69995H9.20923V6.74995L13.3953 10.7999H17.1627V6.74995L13.3953 2.69995Z" fill="#28A8EA"/>
<path d="M9.20923 6.75H13.3953V10.8H9.20923V6.75Z" fill="#0078D4"/>
<path d="M9.20923 10.8H13.3953V14.85H9.20923V10.8Z" fill="#0364B8"/>
<path d="M5.11621 10.8333H9.20933V14.4998H5.11621V10.8333Z" fill="#14447D"/>
<path d="M13.3953 10.8H17.1627V14.85H13.3953V10.8Z" fill="#0078D4"/>
<path d="M17.8083 9.8023L17.8003 9.8068L11.5631 13.5778C11.5359 13.5958 11.5083 13.6129 11.4794 13.6282C11.3734 13.6824 11.2584 13.713 11.1411 13.7182L10.8004 13.504C10.7716 13.4885 10.7436 13.4712 10.7167 13.4522L4.39575 9.57415H4.39282L4.18604 9.44995V17.0837C4.18926 17.5931 4.57583 18.0032 5.04961 17.9999H17.1498C17.1569 17.9999 17.1632 17.9963 17.1707 17.9963C17.2708 17.9895 17.3694 17.9673 17.4637 17.9306C17.5045 17.9121 17.5438 17.8901 17.5814 17.8649C17.6094 17.8479 17.6576 17.8105 17.6576 17.8105C17.872 17.6399 17.9989 17.3705 18 17.0838V9.44995C17.9998 9.59596 17.9266 9.73059 17.8083 9.8023Z" fill="url(#paint0_linear_1686_6355)"/>
<path opacity="0.5" d="M17.665 9.41983V9.88783L11.1431 14.715L4.39105 9.57733C4.39105 9.57485 4.38918 9.57283 4.38687 9.57283L3.76733 9.17233V8.83482L4.02268 8.83032L4.56268 9.16333L4.57523 9.16783L4.62128 9.19933C4.62128 9.19933 10.9673 13.0918 10.9841 13.1008L11.2269 13.2538C11.2478 13.2448 11.2687 13.2358 11.2938 13.2268C11.3064 13.2178 17.5938 9.41532 17.5938 9.41532L17.665 9.41983Z" fill="#0A2767"/>
<path d="M17.8082 9.8023L17.8003 9.80725L11.5631 13.5782C11.5359 13.5962 11.5083 13.6133 11.4794 13.6286C11.2371 13.7558 10.9539 13.7558 10.7116 13.6286C10.683 13.6134 10.655 13.5965 10.6279 13.5782L4.39073 9.80725L4.3832 9.8023C4.26278 9.73211 4.18728 9.5972 4.18604 9.44995V17.0837C4.18903 17.593 4.57547 18.0032 5.04916 18C5.04916 18 5.04918 18 5.0492 18H17.1368C17.6105 18.0032 17.997 17.593 18 17.0838C18 17.0838 18 17.0838 18 17.0837V9.44995C17.9998 9.59596 17.9266 9.73059 17.8082 9.8023Z" fill="#1490DF"/>
<path d="M5.06092 17.9999H17.1356C17.3214 18.001 17.5026 17.9379 17.6525 17.8199L10.8 13.5049C10.7712 13.4894 10.7432 13.4721 10.7163 13.4532L4.39533 9.57505H4.3924L4.18604 9.44995V17.0576C4.18556 17.5776 4.57726 17.9994 5.06092 17.9999V17.9999Z" fill="#28A8EA"/>
<path d="M0.767299 4.05005H8.44199C8.86576 4.05005 9.20929 4.41935 9.20929 4.8749V13.1252C9.20929 13.5807 8.86576 13.95 8.44199 13.95H0.767299C0.343527 13.95 0 13.5807 0 13.1252V4.8749C0 4.41935 0.343537 4.05005 0.767299 4.05005Z" fill="url(#paint1_linear_1686_6355)"/>
<path d="M2.39822 7.50961C2.58734 7.07647 2.89258 6.714 3.27478 6.46877C3.69805 6.20827 4.17996 6.0784 4.66748 6.09346C5.11933 6.08292 5.56519 6.20606 5.95637 6.44941C6.32415 6.68519 6.62037 7.03066 6.80906 7.4439C7.01455 7.89926 7.11696 8.40039 7.10795 8.9064C7.11791 9.43523 7.01254 9.95922 6.80027 10.4364C6.60709 10.8644 6.30148 11.2222 5.9212 11.4655C5.51495 11.7164 5.05253 11.8427 4.58418 11.831C4.12268 11.8429 3.66699 11.7184 3.26683 11.4709C2.89586 11.2349 2.59593 10.889 2.40283 10.4746C2.19612 10.0259 2.09249 9.53038 2.1006 9.0297C2.09199 8.50537 2.19373 7.98573 2.39822 7.50961ZM3.33255 9.9531C3.43338 10.2269 3.60436 10.4644 3.82566 10.638C4.05107 10.8074 4.32098 10.8947 4.59589 10.8873C4.88866 10.8998 5.17725 10.8094 5.41803 10.6299C5.63653 10.4569 5.80302 10.2187 5.89691 9.945C6.00187 9.6393 6.05366 9.31547 6.0497 8.98965C6.05295 8.66072 6.00426 8.33358 5.9057 8.02216C5.81865 7.74099 5.65753 7.49305 5.44189 7.30846C5.20714 7.12046 4.91933 7.02511 4.62686 7.03846C4.346 7.03064 4.07004 7.1187 3.83864 7.29001C3.61359 7.46433 3.43936 7.70392 3.33631 7.98075C3.10771 8.61532 3.10652 9.31855 3.33296 9.954L3.33255 9.9531Z" fill="white"/>
<path d="M13.3953 2.69995H17.1627V6.74995H13.3953V2.69995Z" fill="#50D9FF"/>
</g>
<defs>
<linearGradient id="paint0_linear_1686_6355" x1="11.093" y1="9.44995" x2="11.093" y2="18" gradientUnits="userSpaceOnUse">
<stop stop-color="#35B8F1"/>
<stop offset="1" stop-color="#28A8EA"/>
</linearGradient>
<linearGradient id="paint1_linear_1686_6355" x1="1.59984" y1="3.40553" x2="8.2846" y2="14.1755" gradientUnits="userSpaceOnUse">
<stop stop-color="#1784D9"/>
<stop offset="0.5" stop-color="#107AD5"/>
<stop offset="1" stop-color="#0A63C9"/>
</linearGradient>
<clipPath id="clip0_1686_6355">
<rect width="18" height="18" fill="white"/>
</clipPath>
</defs>
</svg>
