<svg width="32" height="32" viewBox="0 0 32 32" fill="none" xmlns="http://www.w3.org/2000/svg">
<g clip-path="url(#clip0_1681_6325)">
<path d="M31.9688 5.36458V26.6351H0.03125V5.36458H31.9688Z" fill="white" stroke="#384252" stroke-width="0.0623782"/>
<path d="M31.9688 25.057V26.6351H0.03125V25.057H31.9688ZM31.9688 21.7767V23.3548H0.03125V21.7767H31.9688ZM31.9688 18.4954V20.0736H0.03125V18.4954H31.9688ZM31.9688 15.2074V16.7855H0.03125V15.2074H31.9688ZM31.9688 11.9271V13.5052H0.03125V11.9271H31.9688ZM31.9688 8.64583V10.224H0.03125V8.64583H31.9688ZM31.9688 5.36458V6.9427H0.03125V5.36458H31.9688Z" fill="#D80027" stroke="#384252" stroke-width="0.0623782"/>
<path d="M0 5.33333H16V16.8171H0V5.33333Z" fill="#2E52B2"/>
<path d="M2.98165 13.9977L2.73213 13.1992L2.45767 13.9977H1.63428L2.30172 14.478L2.05221 15.2764L2.73213 14.7836L3.39334 15.2764L3.13759 14.478L3.81751 13.9977H2.98165ZM6.49354 13.9977L6.23779 13.1992L5.9758 13.9977H5.15241L5.81985 14.478L5.57034 15.2764L6.23779 14.7836L6.91147 15.2764L6.66196 14.478L7.3294 13.9977H6.49354ZM10.0179 13.9977L9.74968 13.1992L9.50016 13.9977H8.65806L9.34422 14.478L9.08223 15.2764L9.74968 14.7836L10.4358 15.2764L10.1738 14.478L10.8413 13.9977H10.0179ZM13.5236 13.9977L13.274 13.1992L13.0121 13.9977H12.1824L12.8561 14.478L12.6066 15.2764L13.274 14.7836L13.9477 15.2764L13.6795 14.478L14.3657 13.9977H13.5236ZM6.23779 10.0304L5.9758 10.8288H5.15241L5.81985 11.3216L5.57034 12.1076L6.23779 11.621L6.91147 12.1076L6.66196 11.3216L7.3294 10.8288H6.49354L6.23779 10.0304ZM2.73213 10.0304L2.45767 10.8288H1.63428L2.30172 11.3216L2.05221 12.1076L2.73213 11.621L3.39334 12.1076L3.13759 11.3216L3.81751 10.8288H2.98165L2.73213 10.0304ZM9.74968 10.0304L9.50016 10.8288H8.65806L9.34422 11.3216L9.08223 12.1076L9.74968 11.621L10.4358 12.1076L10.1738 11.3216L10.8413 10.8288H10.0179L9.74968 10.0304ZM13.274 10.0304L13.0121 10.8288H12.1824L12.8561 11.3216L12.6066 12.1076L13.274 11.621L13.9477 12.1076L13.6795 11.3216L14.3657 10.8288H13.5236L13.274 10.0304ZM2.73213 6.87407L2.45767 7.66003H1.63428L2.30172 8.15282L2.05221 8.94502L2.73213 8.45224L3.39334 8.94502L3.13759 8.15282L3.81751 7.66003H2.98165L2.73213 6.87407ZM6.23779 6.87407L5.9758 7.66003H5.15241L5.81985 8.15282L5.57034 8.94502L6.23779 8.45224L6.91147 8.94502L6.66196 8.15282L7.3294 7.66003H6.49354L6.23779 6.87407ZM9.74968 6.87407L9.50016 7.66003H8.65806L9.34422 8.15282L9.08223 8.94502L9.74968 8.45224L10.4358 8.94502L10.1738 8.15282L10.8413 7.66003H10.0179L9.74968 6.87407ZM13.274 6.87407L13.0121 7.66003H12.1824L12.8561 8.15282L12.6066 8.94502L13.274 8.45224L13.9477 8.94502L13.6795 8.15282L14.3657 7.66003H13.5236L13.274 6.87407Z" fill="white"/>
</g>
<defs>
<clipPath id="clip0_1681_6325">
<rect width="32" height="21.3333" fill="white" transform="translate(0 5.33333)"/>
</clipPath>
</defs>
</svg>
